<svg height="512" viewBox="0 0 64 64" width="512" xmlns="http://www.w3.org/2000/svg"><g id="flat"><path d="m11 2.88h50v36h-50z" fill="#348fd9"/><path d="m15 6.88h42v28h-42z" fill="#9fe4ed"/><circle cx="22" cy="13.88" fill="#ffa912" r="3"/><path d="m3 12.88h50v36h-50z" fill="#44546c"/><path d="m7 16.88h42v28h-42z" fill="#9fe4ed"/><circle cx="14" cy="23.88" fill="#ffa912" r="3"/><path d="m15 12.88h34v50h-34z" fill="#ffa912" transform="matrix(.276 .961 -.961 .276 59.574 -3.334)"/><path d="m19 16.88h26v42h-26z" fill="#9fe4ed" transform="matrix(.276 .961 -.961 .276 59.574 -3.334)"/><path d="m49.5058 32.7212 3.6233 12.6156 2.6435-.7592-7.1771-24.99-40.3681 11.5942.6435 2.2407 27.5911-7.9243a10.543 10.543 0 0 1 13.0438 7.223z" opacity=".2"/><path d="m38.66 38.68-13.33-7.73-11.22 20.73 1.89 6.2 28-8-5-11" fill="#7eb457"/><path d="m39 38.88-.34-.2-13.33-7.73-.6752 1.2476a13.2543 13.2543 0 0 1 -3.7285 20.5781l-5.9263 3.1043 1 2 28-8z" opacity=".2"/><path d="m31.13 51.65 7.53-12.97 3.7-6.38 12.64 6.58 2 6z" fill="#7eb457"/><path d="m55 38.88-12.64-6.58-.9642 1.6626a7.3709 7.3709 0 0 1 -.647 12.7236l-9.6188 4.9638 25.87-6.77z" opacity=".21"/><g fill="#ffa912"><path d="m51.3358 14.6391-48.0572 13.8023 9.3856 32.6786 48.0572-13.802zm-43.1084 16.5427 40.3681-11.594 7.1771 24.99-40.3681 11.5937z"/><circle cx="36.796" cy="29.219" r="3"/></g></g></svg>